<?xml version="1.0" standalone="no"?>
<!DOCTYPE svg PUBLIC "-//W3C//DTD SVG 20010904//EN"
 "http://www.w3.org/TR/2001/REC-SVG-20010904/DTD/svg10.dtd">
<svg version="1.0" xmlns="http://www.w3.org/2000/svg"
 width="507.000000pt" height="492.000000pt" viewBox="0 0 507.000000 492.000000"
 preserveAspectRatio="xMidYMid meet">

<g transform="translate(0.000000,492.000000) scale(0.100000,-0.100000)"
fill="#000000" stroke="none">
<path d="M2748 4477 c-74 -38 -92 -70 -31 -56 48 11 130 12 137 1 8 -14 -8
-31 -47 -47 -49 -20 -49 -38 1 -29 118 21 186 111 112 149 -47 24 -101 19
-172 -18z"/>
<path d="M2220 4470 c-135 -29 -812 -274 -902 -327 -86 -50 -103 -148 -43
-248 20 -32 34 -59 33 -61 -2 -1 -89 -45 -193 -97 -263 -130 -289 -155 -289
-277 0 -83 27 -144 91 -206 26 -26 144 -111 263 -189 198 -131 320 -225 320
-245 0 -5 -82 -82 -182 -172 -100 -89 -231 -209 -291 -265 -126 -118 -208
-177 -280 -198 -66 -19 -94 -19 -136 3 -48 24 -71 73 -71 148 0 90 30 174 141
398 54 109 99 206 99 215 -1 10 -15 0 -40 -28 -48 -53 -180 -313 -215 -423
-51 -160 -43 -297 21 -385 19 -27 41 -58 51 -71 19 -27 14 -55 -35 -187 -51
-138 -66 -362 -33 -476 23 -77 79 -134 147 -149 65 -15 127 9 250 100 60 44
113 80 118 80 4 0 5 -8 1 -18 -21 -53 -45 -208 -45 -298 0 -124 13 -200 50
-280 108 -239 391 -311 803 -204 127 32 270 88 325 125 20 14 49 25 63 25 26
0 27 -1 18 -37 -16 -71 -11 -226 11 -294 44 -144 153 -207 281 -164 64 22 107
61 214 194 51 64 120 141 152 172 190 184 410 311 653 378 l70 20 40 -68 c72
-121 106 -146 182 -136 180 25 291 137 342 348 53 218 36 719 -64 1942 -5 66
-13 183 -16 260 l-7 140 40 -37 c42 -41 68 -49 59 -20 -3 9 -13 44 -22 77 -36
129 -126 307 -144 289 -32 -32 -37 -376 -11 -604 9 -77 20 -233 51 -725 6 -93
15 -235 20 -315 5 -80 16 -296 25 -480 8 -184 17 -385 20 -446 l5 -111 -35
-41 c-98 -114 -316 -136 -381 -38 l-17 27 70 72 c139 143 182 300 127 460 -19
58 -81 127 -113 127 -32 0 -95 -35 -124 -69 -44 -53 -68 -136 -90 -316 -11
-93 -24 -175 -29 -182 -5 -6 -64 -35 -131 -63 -239 -103 -376 -181 -468 -267
-28 -26 -97 -103 -154 -173 -216 -259 -400 -367 -484 -282 -22 21 -31 45 -41
100 -26 146 17 259 160 417 55 61 103 126 123 165 30 61 32 71 32 170 -1 96
-4 116 -42 230 -23 69 -45 142 -49 163 l-6 38 41 -7 c23 -4 41 -3 41 3 0 22
-71 119 -135 184 l-70 71 -8 -39 c-5 -21 -6 -69 -4 -108 5 -66 18 -110 94
-305 50 -131 83 -241 83 -280 0 -35 -7 -48 -47 -91 -80 -86 -285 -211 -458
-279 -182 -72 -285 -94 -440 -94 -312 1 -479 106 -526 332 -17 82 -6 262 20
335 74 209 166 273 602 417 80 26 169 60 198 74 117 60 173 158 175 306 1 110
-23 203 -83 325 -26 53 -41 93 -34 90 31 -11 352 -255 644 -487 114 -90 138
-114 143 -141 10 -58 25 -368 31 -652 6 -324 15 -479 25 -468 17 18 51 144 65
238 20 131 19 419 -1 637 -8 94 -14 172 -12 173 2 2 30 -3 63 -11 72 -16 185
-18 255 -3 28 6 71 25 97 42 113 76 136 160 136 507 -1 242 -13 420 -59 805
-63 538 -85 796 -68 794 5 0 26 -22 47 -50 35 -45 67 -64 67 -38 0 21 -60 189
-86 241 -14 29 -42 80 -62 113 l-36 59 -14 -34 c-25 -58 -26 -218 -3 -440 11
-113 23 -245 26 -295 14 -209 39 -483 86 -955 5 -58 13 -196 16 -307 l6 -202
-31 -29 c-95 -89 -332 -77 -405 20 -52 67 -57 121 -93 901 -4 81 -3 147 1 147
5 0 23 -18 42 -40 45 -52 66 -53 57 -2 -14 85 -141 405 -157 395 -5 -3 -19
-26 -30 -52 -29 -65 -33 -215 -13 -541 19 -306 21 -660 6 -660 -31 0 -122 57
-315 195 -77 56 -183 130 -235 166 -52 35 -126 93 -164 129 l-68 65 38 17 c60
27 198 24 320 -7 116 -30 124 -26 124 60 0 44 -5 56 -31 83 -17 17 -66 51
-108 76 -140 80 -176 145 -193 350 -6 75 -8 139 -4 143 4 4 20 -1 37 -11 17
-10 33 -15 36 -12 21 21 -152 326 -177 311 -16 -10 -22 -151 -11 -244 7 -52
27 -171 46 -265 19 -94 37 -198 40 -231 l6 -60 -150 -50 -151 -49 -33 19 c-17
10 -120 75 -227 145 -248 161 -304 194 -420 251 -52 26 -106 59 -120 74 l-25
27 39 33 c22 18 73 49 113 69 128 63 540 225 768 301 527 177 819 234 967 191
63 -18 108 -61 108 -102 0 -30 -65 -97 -242 -247 -72 -61 -155 -143 -192 -189
-63 -78 -143 -214 -133 -224 3 -3 83 73 179 168 95 95 225 223 288 283 127
121 176 196 187 283 15 128 -77 212 -232 212 -157 0 -504 -90 -1080 -279 -99
-32 -212 -68 -251 -79 l-72 -20 -37 79 c-20 44 -35 85 -32 92 13 34 387 192
694 293 189 62 294 106 343 144 l25 20 -25 -1 c-14 0 -63 -9 -110 -19z m-545
-1771 c107 -85 375 -461 375 -528 0 -57 -91 -111 -270 -161 -357 -98 -474
-165 -820 -469 -160 -141 -266 -189 -345 -157 -46 19 -65 64 -65 149 0 139 58
380 105 436 18 20 41 33 78 41 110 26 185 79 377 264 224 216 495 446 526 446
6 0 24 -10 39 -21z m2131 -1144 c12 -8 31 -38 44 -66 43 -101 9 -178 -102
-235 l-47 -24 -15 22 c-50 79 -50 242 1 292 30 30 86 35 119 11z"/>
<path d="M1592 2319 c-9 -17 -25 -41 -34 -53 -16 -19 -19 -20 -42 -6 -13 8
-50 30 -81 49 l-56 33 -31 -28 c-16 -16 -38 -45 -48 -64 l-18 -35 61 -55 c33
-30 66 -58 73 -63 21 -12 43 3 69 52 42 76 51 78 131 15 38 -29 74 -54 79 -53
13 0 71 77 79 106 15 50 -68 133 -133 133 -25 0 -35 -6 -49 -31z"/>
<path d="M962 2028 c-32 -81 -42 -127 -42 -194 0 -109 25 -145 76 -109 24 16
54 74 54 102 -1 15 -4 13 -23 -9 -13 -16 -27 -28 -33 -28 -6 0 -21 22 -34 50
l-23 49 31 80 c18 44 32 87 32 95 0 32 -18 14 -38 -36z"/>
<path d="M3616 4153 c-10 -32 -14 -394 -5 -538 4 -77 19 -284 33 -460 14 -176
26 -343 26 -371 0 -57 -6 -65 -105 -131 -33 -22 -69 -51 -80 -63 l-20 -23 25
8 c14 4 41 16 60 27 19 11 52 27 73 34 36 13 38 12 46 -9 5 -13 12 -79 15
-148 11 -219 18 -289 27 -289 19 0 49 140 59 280 18 248 44 332 117 387 21 15
41 32 45 38 9 12 10 171 2 203 -12 42 -83 20 -109 -33 -21 -45 -19 -74 8 -128
l24 -46 -22 -27 c-13 -16 -28 -25 -40 -23 -18 4 -22 21 -37 143 -17 141 -58
697 -58 794 0 29 3 52 6 52 4 0 22 -13 41 -30 40 -36 57 -38 48 -7 -30 103
-150 377 -166 377 -4 0 -10 -8 -13 -17z m278 -1109 c20 -20 21 -54 1 -54 -18
0 -49 45 -40 60 9 14 21 13 39 -6z"/>
<path d="M885 3935 c-34 -72 -47 -216 -23 -248 14 -18 15 -18 46 8 35 29 43
58 15 53 -48 -7 -56 50 -23 148 31 88 20 114 -15 39z"/>
<path d="M2426 3921 c-45 -61 -86 -150 -93 -200 -6 -44 17 -105 46 -120 18
-10 23 -6 50 41 31 54 28 68 -8 49 -34 -19 -41 -13 -41 34 0 32 11 64 38 117
36 68 58 128 48 128 -2 0 -20 -22 -40 -49z"/>
<path d="M3017 3633 c-35 -79 -50 -231 -27 -272 23 -45 72 -32 90 24 13 40 7
55 -21 55 -33 0 -43 44 -29 138 7 46 10 85 8 88 -3 2 -12 -13 -21 -33z"/>
<path d="M3447 3663 c-3 -4 -14 -39 -26 -77 -36 -118 -23 -208 31 -214 32 -4
58 29 58 72 l0 30 -16 -22 c-8 -12 -19 -22 -24 -22 -20 0 -30 76 -21 155 9 77
8 95 -2 78z"/>
<path d="M1705 3586 c-9 -13 -28 -75 -43 -137 -16 -62 -32 -114 -37 -115 -6
-1 -28 21 -51 49 -62 80 -145 128 -165 96 -28 -44 3 -103 62 -119 41 -11 64
-36 121 -134 15 -25 32 -46 38 -46 17 0 30 48 45 164 20 160 34 188 76 150 24
-22 39 -10 39 32 0 24 -8 43 -25 59 -30 31 -40 31 -60 1z"/>
<path d="M4365 3420 c-14 -23 -16 -120 -6 -320 37 -704 59 -1206 67 -1548 l7
-273 19 32 c11 18 29 66 41 108 19 69 21 100 21 341 -1 149 -10 411 -22 600
-12 184 -24 427 -27 540 l-6 205 38 -43 c21 -23 43 -42 50 -42 26 0 -53 222
-123 347 -34 62 -47 73 -59 53z"/>
<path d="M745 3290 c-50 -21 -102 -101 -90 -139 3 -10 14 -26 25 -36 11 -10
20 -28 20 -41 0 -34 -100 -127 -241 -227 -68 -48 -135 -96 -149 -107 -24 -19
-24 -20 -4 -20 43 0 181 81 289 170 61 51 140 110 178 132 37 22 67 47 67 55
0 9 -10 31 -22 51 -14 23 -21 50 -20 80 0 47 -12 92 -25 91 -5 0 -17 -4 -28
-9z m-5 -95 c0 -36 -13 -47 -24 -19 -11 28 -6 54 9 54 10 0 15 -11 15 -35z"/>
<path d="M475 3210 c-15 -24 -17 -125 -3 -142 12 -16 16 -16 44 -2 30 15 69
66 57 77 -3 4 -15 0 -27 -8 -31 -22 -36 -19 -36 24 0 40 -22 72 -35 51z"/>
<path d="M1034 2939 c-35 -47 -75 -190 -76 -272 -2 -71 12 -104 47 -113 42
-11 64 4 79 54 15 52 13 61 -8 43 -27 -22 -59 -9 -68 27 -9 34 -2 82 27 190
17 66 17 94 -1 71z"/>
<path d="M2548 2837 c-44 -70 -68 -143 -68 -208 0 -62 21 -119 43 -119 24 0
56 31 67 66 14 41 6 56 -15 28 -15 -19 -15 -18 -35 5 -28 32 -25 76 10 172 17
45 29 86 28 90 -2 5 -15 -10 -30 -34z"/>
<path d="M3065 2628 c-52 -120 -60 -214 -23 -268 13 -19 31 -36 41 -38 24 -5
67 42 67 73 0 22 -4 25 -39 25 -32 0 -40 4 -45 23 -10 38 -7 63 18 144 32 104
38 133 28 133 -4 0 -26 -41 -47 -92z"/>
<path d="M4662 2608 c-81 -132 -92 -403 -17 -403 22 0 65 74 65 110 -1 19 -2
19 -21 -4 -18 -23 -21 -23 -36 -8 -10 10 -18 39 -21 75 -3 48 2 76 31 160 36
103 35 129 -1 70z"/>
<path d="M2264 2239 c-24 -26 -24 -117 0 -173 16 -38 16 -39 -11 -75 -46 -61
-153 -161 -306 -284 -81 -65 -147 -125 -147 -133 0 -20 4 -19 84 35 112 76
210 157 342 284 93 89 128 117 148 117 38 0 42 23 12 75 -15 25 -30 68 -33 98
-3 28 -10 58 -16 65 -15 19 -52 14 -73 -9z m44 -61 c19 -19 14 -28 -13 -28
-18 0 -25 5 -25 20 0 22 20 26 38 8z"/>
<path d="M367 2113 c-26 -31 -25 -58 3 -61 14 -2 29 -7 34 -12 4 -5 -15 -51
-44 -105 -29 -53 -50 -98 -47 -101 7 -7 82 86 105 131 25 50 36 106 28 140 -5
19 -13 25 -35 25 -15 0 -35 -8 -44 -17z"/>
<path d="M3650 2111 c0 -5 -21 -34 -46 -65 l-46 -56 54 -55 55 -55 55 55 c30
30 59 55 64 55 6 0 38 -21 73 -46 58 -42 66 -45 87 -33 50 26 72 91 50 143
-30 72 -93 76 -166 11 -28 -25 -53 -45 -55 -45 -3 0 -27 23 -55 50 -48 48 -70
61 -70 41z"/>
<path d="M3366 1860 c-30 -9 -66 -37 -66 -52 0 -4 29 -8 64 -8 38 0 68 -5 72
-12 7 -10 -1 -18 -51 -53 -18 -12 -15 -12 23 -4 60 13 116 43 135 73 22 32 22
32 -10 44 -40 16 -133 23 -167 12z"/>
<path d="M3210 1602 c-41 -22 -107 -104 -116 -144 -4 -21 1 -36 20 -59 l26
-31 -37 -41 c-51 -57 -31 -59 105 -13 59 20 126 41 149 46 50 13 103 54 88 69
-5 5 -62 11 -126 13 -98 2 -120 6 -138 22 -43 39 -16 77 64 90 56 9 95 26 95
41 0 30 -79 34 -130 7z"/>
<path d="M1555 1532 c-149 -77 -202 -112 -277 -182 -65 -61 -47 -66 52 -13 39
20 73 33 76 30 4 -3 -1 -57 -10 -119 -19 -132 -20 -160 -6 -210 14 -51 36 -70
74 -66 24 2 35 10 47 38 9 19 20 49 23 65 l6 30 -28 -32 c-16 -18 -32 -33 -36
-33 -20 0 -46 89 -46 161 0 143 42 220 158 288 75 44 105 72 100 95 -2 12 -32
0 -133 -52z"/>
<path d="M2211 1559 c-37 -60 -55 -138 -56 -236 0 -83 2 -94 24 -117 29 -30
51 -33 80 -8 20 16 58 112 44 112 -3 0 -17 -12 -30 -26 l-25 -27 -21 22 c-19
19 -22 32 -21 104 1 45 9 109 18 141 8 33 14 61 11 64 -2 2 -13 -11 -24 -29z"/>
<path d="M1807 1379 c-22 -13 -47 -61 -47 -93 0 -29 57 -92 97 -107 65 -24 98
0 109 82 6 43 5 46 -40 87 -47 43 -82 52 -119 31z"/>
<path d="M802 1123 l-27 -27 33 -13 c40 -16 42 -44 7 -128 -29 -70 -28 -65
-15 -65 33 0 121 220 99 246 -19 23 -67 17 -97 -13z"/>
<path d="M3541 719 c-11 -12 -28 -45 -37 -73 -32 -99 -56 -156 -63 -156 -5 0
-21 19 -36 41 -42 65 -105 129 -147 150 l-38 20 -11 -25 c-19 -40 -4 -71 51
-106 64 -41 94 -77 130 -156 16 -35 33 -64 38 -64 5 0 19 35 31 78 34 118 52
160 77 187 29 31 35 31 72 0 45 -38 56 -33 49 21 -9 87 -71 131 -116 83z"/>
<path d="M2981 503 c-38 -39 -41 -63 -6 -63 38 0 34 -52 -10 -120 -19 -30 -35
-59 -35 -64 0 -24 64 55 92 111 32 66 33 108 4 148 -13 18 -15 18 -45 -12z"/>
</g>
</svg>
